<svg width="280" height="36" viewBox="0 0 280 36" fill="none" xmlns="http://www.w3.org/2000/svg">
<mask id="path-1-inside-1_486_5282" fill="white">
<path d="M25.7707 35.3295V28.5731H7.66296V21.3524H24.3535V14.596H7.66296V7.37536H25.4557V0.618912H6.7707C1.8895 0.618912 0 3.14613 0 7.11748V28.8825C0 32.8539 1.8895 35.3295 6.7707 35.3295H25.7707Z"/>
<path d="M38.421 35.3295L44.7718 25.1691C45.5066 23.9312 46.084 22.6934 46.4514 21.4556H49.2856C49.653 22.6934 50.1779 23.9312 50.9127 25.1691L57.316 35.3295H66.4486L58.0508 22.1777C56.7911 20.2178 56.3188 18.9284 56.3188 17.6905C56.3188 16.4011 56.8436 15.1633 58.0508 13.255L66.1337 0.618912H57.1585L50.9127 10.7794C50.1779 12.0172 49.6006 13.255 49.2856 14.5444H46.4514C46.084 13.255 45.5591 12.0172 44.8243 10.7794L38.5785 0.618912H29.6034L37.6337 13.255C38.8409 15.1633 39.4183 16.4011 39.4183 17.6905C39.4183 18.9284 38.8934 20.2178 37.6337 22.1777L29.236 35.3295H38.421Z"/>
<path d="M79.5873 35.2779V26.149H84.7834C94.4934 26.149 100.529 21.6103 100.529 13.255C100.529 5.20917 94.3884 0.618912 84.3635 0.618912H71.9243V35.3295L79.5873 35.2779ZM84.5735 7.58166C89.6121 7.58166 92.6563 9.4384 92.6563 13.255C92.6563 17.2779 89.6121 19.1862 84.5735 19.1862H79.5873V7.58166H84.5735Z"/>
<path d="M131.973 35.3295V28.5731H113.865V21.3524H130.556V14.596H113.865V7.37536H131.658V0.618912H112.973C108.092 0.618912 106.202 3.14613 106.202 7.11748V28.8825C106.202 32.8539 108.092 35.3295 112.973 35.3295H131.973Z"/>
<path d="M147.038 35.3295L147.09 24.2407H150.082C154.071 24.2407 155.593 25.9427 157.22 29.1404L160.369 35.3295H168.662L165.25 28.4699C163.413 24.8596 162.101 22.4871 159.844 21.2493C164.358 20.063 167.192 16.4011 167.192 11.6562C167.192 4.2808 161.051 0.618912 153.074 0.618912H139.48V35.3295H147.038ZM153.178 7.58166C156.643 7.58166 159.319 9.02579 159.319 12.4298C159.319 15.6791 156.695 17.5358 153.074 17.5358H147.09L147.143 7.58166H153.178Z"/>
<path d="M200.227 0.618912H171.78V7.58166H182.172V35.3295H189.835V7.58166H200.227V0.618912Z"/>
<path d="M205.754 0.618912V35.3295H213.417V0.618912H205.754Z"/>
<path d="M234.159 36C241.664 36 247.648 31.4613 247.648 25.2206C247.648 17.3295 240.719 15.4728 235.471 14.596C231.639 13.9255 228.7 13.2034 228.7 10.4183C228.7 8.30373 230.695 6.96275 233.581 6.96275C237.15 6.96275 239.46 8.51003 240.615 10.7278L247.018 7.58166C244.761 2.63038 239.722 0 233.896 0C226.601 0 221.037 4.64184 221.037 10.7278C221.037 18.5673 228.228 20.4241 233.529 21.3009C237.203 21.9198 239.985 22.384 239.985 25.2722C239.985 27.7479 237.465 29.0888 234.159 29.0888C230.485 29.0888 228.018 27.7994 226.863 25.2722L220.46 28.4183C222.717 33.3696 227.808 36 234.159 36Z"/>
<path d="M280 35.3295V28.5731H261.892V21.3524H278.583V14.596H261.892V7.37536H279.685V0.618912H261C256.119 0.618912 254.229 3.14613 254.229 7.11748V28.8825C254.229 32.8539 256.119 35.3295 261 35.3295H280Z"/>
</mask>
<path d="M25.7707 35.3295V28.5731H7.66296V21.3524H24.3535V14.596H7.66296V7.37536H25.4557V0.618912H6.7707C1.8895 0.618912 0 3.14613 0 7.11748V28.8825C0 32.8539 1.8895 35.3295 6.7707 35.3295H25.7707Z" stroke="#F1EDE8" stroke-width="2" mask="url(#path-1-inside-1_486_5282)"/>
<path d="M38.421 35.3295L44.7718 25.1691C45.5066 23.9312 46.084 22.6934 46.4514 21.4556H49.2856C49.653 22.6934 50.1779 23.9312 50.9127 25.1691L57.316 35.3295H66.4486L58.0508 22.1777C56.7911 20.2178 56.3188 18.9284 56.3188 17.6905C56.3188 16.4011 56.8436 15.1633 58.0508 13.255L66.1337 0.618912H57.1585L50.9127 10.7794C50.1779 12.0172 49.6006 13.255 49.2856 14.5444H46.4514C46.084 13.255 45.5591 12.0172 44.8243 10.7794L38.5785 0.618912H29.6034L37.6337 13.255C38.8409 15.1633 39.4183 16.4011 39.4183 17.6905C39.4183 18.9284 38.8934 20.2178 37.6337 22.1777L29.236 35.3295H38.421Z" stroke="#F1EDE8" stroke-width="2" mask="url(#path-1-inside-1_486_5282)"/>
<path d="M79.5873 35.2779V26.149H84.7834C94.4934 26.149 100.529 21.6103 100.529 13.255C100.529 5.20917 94.3884 0.618912 84.3635 0.618912H71.9243V35.3295L79.5873 35.2779ZM84.5735 7.58166C89.6121 7.58166 92.6563 9.4384 92.6563 13.255C92.6563 17.2779 89.6121 19.1862 84.5735 19.1862H79.5873V7.58166H84.5735Z" stroke="#F1EDE8" stroke-width="2" mask="url(#path-1-inside-1_486_5282)"/>
<path d="M131.973 35.3295V28.5731H113.865V21.3524H130.556V14.596H113.865V7.37536H131.658V0.618912H112.973C108.092 0.618912 106.202 3.14613 106.202 7.11748V28.8825C106.202 32.8539 108.092 35.3295 112.973 35.3295H131.973Z" stroke="#F1EDE8" stroke-width="2" mask="url(#path-1-inside-1_486_5282)"/>
<path d="M147.038 35.3295L147.09 24.2407H150.082C154.071 24.2407 155.593 25.9427 157.22 29.1404L160.369 35.3295H168.662L165.25 28.4699C163.413 24.8596 162.101 22.4871 159.844 21.2493C164.358 20.063 167.192 16.4011 167.192 11.6562C167.192 4.2808 161.051 0.618912 153.074 0.618912H139.48V35.3295H147.038ZM153.178 7.58166C156.643 7.58166 159.319 9.02579 159.319 12.4298C159.319 15.6791 156.695 17.5358 153.074 17.5358H147.09L147.143 7.58166H153.178Z" stroke="#F1EDE8" stroke-width="2" mask="url(#path-1-inside-1_486_5282)"/>
<path d="M200.227 0.618912H171.78V7.58166H182.172V35.3295H189.835V7.58166H200.227V0.618912Z" stroke="#F1EDE8" stroke-width="2" mask="url(#path-1-inside-1_486_5282)"/>
<path d="M205.754 0.618912V35.3295H213.417V0.618912H205.754Z" stroke="#F1EDE8" stroke-width="2" mask="url(#path-1-inside-1_486_5282)"/>
<path d="M234.159 36C241.664 36 247.648 31.4613 247.648 25.2206C247.648 17.3295 240.719 15.4728 235.471 14.596C231.639 13.9255 228.7 13.2034 228.7 10.4183C228.7 8.30373 230.695 6.96275 233.581 6.96275C237.15 6.96275 239.46 8.51003 240.615 10.7278L247.018 7.58166C244.761 2.63038 239.722 0 233.896 0C226.601 0 221.037 4.64184 221.037 10.7278C221.037 18.5673 228.228 20.4241 233.529 21.3009C237.203 21.9198 239.985 22.384 239.985 25.2722C239.985 27.7479 237.465 29.0888 234.159 29.0888C230.485 29.0888 228.018 27.7994 226.863 25.2722L220.46 28.4183C222.717 33.3696 227.808 36 234.159 36Z" stroke="#F1EDE8" stroke-width="2" mask="url(#path-1-inside-1_486_5282)"/>
<path d="M280 35.3295V28.5731H261.892V21.3524H278.583V14.596H261.892V7.37536H279.685V0.618912H261C256.119 0.618912 254.229 3.14613 254.229 7.11748V28.8825C254.229 32.8539 256.119 35.3295 261 35.3295H280Z" stroke="#F1EDE8" stroke-width="2" mask="url(#path-1-inside-1_486_5282)"/>
</svg>
