<svg width="20" height="8" viewBox="0 0 20 8" fill="none" xmlns="http://www.w3.org/2000/svg">
<path d="M1.50935 2.42232C1.4704 2.42232 1.46066 2.40147 1.48014 2.37019L1.68463 2.0887C1.7041 2.05743 1.75279 2.03658 1.79174 2.03658H5.26809C5.30704 2.03658 5.31678 2.06785 5.29731 2.09913L5.13177 2.37019C5.11229 2.40147 5.0636 2.43275 5.03439 2.43275L1.50935 2.42232Z" fill="white"/>
<path d="M0.0389508 3.38146C8.12575e-08 3.38146 -0.00973771 3.36061 0.00973765 3.32933L0.214229 3.04784C0.233704 3.01656 0.282393 2.99571 0.321343 2.99571H4.76172C4.80068 2.99571 4.82015 3.02699 4.81041 3.05827L4.73251 3.30848C4.72277 3.35018 4.68382 3.37103 4.64487 3.37103L0.0389508 3.38146Z" fill="white"/>
<path d="M2.39546 4.34061C2.35651 4.34061 2.34677 4.30933 2.36624 4.27806L2.50257 4.01742C2.52205 3.98614 2.561 3.95486 2.59995 3.95486H4.54748C4.58643 3.95486 4.60591 3.98614 4.60591 4.02784L4.58644 4.27806C4.58644 4.31976 4.54748 4.35104 4.51827 4.35104L2.39546 4.34061Z" fill="white"/>
<path d="M12.5032 2.23465C11.8897 2.40146 11.471 2.52657 10.8672 2.69338C10.7212 2.73508 10.7114 2.74551 10.5848 2.58912C10.4388 2.41189 10.3317 2.29721 10.1272 2.19295C9.5137 1.86976 8.9197 1.96359 8.36465 2.34933C7.70249 2.80806 7.36167 3.48572 7.37141 4.33019C7.38114 5.16424 7.91672 5.85233 8.68599 5.96701C9.34816 6.06084 9.9032 5.81063 10.3414 5.27892C10.429 5.16424 10.5069 5.03913 10.6043 4.89318C10.2538 4.89318 9.81556 4.89318 8.72494 4.89318C8.52045 4.89318 8.47176 4.75764 8.53993 4.58041C8.66652 4.25722 8.90022 3.71509 9.03655 3.44402C9.06576 3.38147 9.13393 3.27721 9.27999 3.27721C9.77661 3.27721 11.6073 3.27721 12.8245 3.27721C12.805 3.5587 12.805 3.84019 12.7661 4.12168C12.659 4.87232 12.396 5.56041 11.9676 6.1651C11.2665 7.15553 10.3511 7.77064 9.19235 7.93745C8.23806 8.07298 7.35193 7.87489 6.57292 7.24936C5.85233 6.66552 5.44335 5.89403 5.33623 4.93488C5.20964 3.79849 5.52125 2.77678 6.16393 1.88018C6.85531 0.910605 7.77065 0.295495 8.89048 0.0765578C9.80583 -0.100677 10.6822 0.0140045 11.471 0.587411C11.9871 0.952307 12.3571 1.45273 12.6005 2.05742C12.659 2.15125 12.62 2.20338 12.5032 2.23465Z" fill="white"/>
<path d="M15.7263 7.99999C14.8402 7.97914 14.032 7.70807 13.3503 7.08254C12.7758 6.55083 12.4155 5.87317 12.2987 5.0704C12.1234 3.89231 12.4253 2.84975 13.0874 1.92187C13.7983 0.921018 14.6552 0.399739 15.814 0.180802C16.8072 -0.00685885 17.742 0.0973968 18.5892 0.712506C19.3585 1.27549 19.8356 2.03656 19.9622 3.03741C20.1278 4.44486 19.748 5.59168 18.8424 6.57168C18.1997 7.2702 17.411 7.70807 16.5054 7.90616C16.2424 7.95828 15.9795 7.96871 15.7263 7.99999ZM18.0439 3.78805C18.0342 3.65252 18.0342 3.54826 18.0147 3.44401C17.8394 2.41188 16.9533 1.82804 16.0282 2.05741C15.1226 2.27634 14.5383 2.89145 14.3241 3.87146C14.1488 4.68465 14.5189 5.50827 15.22 5.84189C15.7556 6.09211 16.2911 6.06083 16.8072 5.77934C17.5765 5.35189 17.9952 4.68465 18.0439 3.78805Z" fill="white"/>
</svg>
