<svg width="127" height="42" viewBox="0 0 127 42" fill="none" xmlns="http://www.w3.org/2000/svg">
<path d="M68 21C68 32.598 58.6899 42 47.2054 42C35.7208 42 26.4107 32.598 26.4107 21C26.4107 9.40202 35.7208 0 47.2054 0C58.6899 0 68 9.40202 68 21Z" fill="#262523"/>
<path d="M31.5714 0.000547312C20.1567 0.0829528 10.9286 9.45316 10.9286 21C10.9286 32.5468 20.1567 41.917 31.5714 41.9995V0.000547312Z" fill="#262523"/>
<path d="M11.5357 2.1908C4.69779 5.63036 0 12.7609 0 20.9995C0 29.238 4.69779 36.3685 11.5357 39.8081V2.1908Z" fill="#262523"/>
<path d="M42.0212 28C44.7723 28 46.9655 26.361 46.9655 24.1074C46.9655 21.2579 44.426 20.5874 42.5022 20.2708C41.0978 20.0287 40.0204 19.7679 40.0204 18.7622C40.0204 17.9986 40.7515 17.5143 41.8096 17.5143C43.1178 17.5143 43.9643 18.0731 44.3875 18.8739L46.7346 17.7378C45.9074 15.9499 44.0605 15 41.925 15C39.2509 15 37.2116 16.6762 37.2116 18.8739C37.2116 21.7049 39.8473 22.3754 41.7904 22.692C43.137 22.9155 44.1567 23.0831 44.1567 24.1261C44.1567 25.0201 43.2332 25.5043 42.0212 25.5043C40.6745 25.5043 39.7703 25.0387 39.3471 24.1261L37 25.2622C37.8273 27.0501 39.6934 28 42.0212 28Z" fill="#D9D9D9"/>
<path d="M55.2649 27.7579V22.7665H61.1711V27.7579H63.9799V15.2235H61.1711V20.2708H55.2649V15.2235H52.4561V27.7579H55.2649Z" fill="#D9D9D9"/>
<path d="M71.8926 22.2636C72.2388 23.0458 72.7583 23.586 73.3354 23.9212V27.7579H76.1442V23.9026C76.7214 23.5673 77.2216 23.0272 77.5486 22.2636L80.7037 15.2235H77.6641L75.0284 21.5186C74.913 21.7421 74.8553 21.8911 74.7398 21.8911C74.6244 21.8911 74.5667 21.7607 74.4513 21.5186L71.7964 15.2235H68.7759L71.8926 22.2636Z" fill="#262523"/>
<path d="M90.4329 27.7579C93.5303 27.7579 95.7812 26.7149 95.7812 24.2564C95.7812 22.6734 94.9155 21.8725 93.6265 21.5186C94.8578 21.0716 95.6466 20.1032 95.6466 18.6691C95.6466 16.5272 93.7035 15.2235 90.4714 15.2235H85.4694V27.7579H90.4329ZM88.2783 17.4585H90.6253C92.0682 17.4585 92.8377 17.9613 92.8377 18.8926C92.8377 19.9169 92.1452 20.4384 90.6061 20.4384H88.2783V17.4585ZM88.2783 22.6734H90.6061C92.1836 22.6734 92.9724 23.0086 92.9724 24.0702C92.9724 25.2249 91.9528 25.5229 90.5869 25.5229H88.2783V22.6734Z" fill="#262523"/>
<path d="M110.666 27.7579V25.3181H104.029V22.7106H110.147V20.2708H104.029V17.6633H110.551V15.2235H103.702C101.913 15.2235 101.22 16.1361 101.22 17.5702V25.4298C101.22 26.8639 101.913 27.7579 103.702 27.7579H110.666Z" fill="#262523"/>
<path d="M119.074 27.7579L119.093 23.7536H120.19C121.652 23.7536 122.21 24.3682 122.806 25.5229L123.96 27.7579H127L125.75 25.2808C125.076 23.9771 124.595 23.1203 123.768 22.6734C125.422 22.245 126.461 20.9226 126.461 19.2092C126.461 16.5458 124.21 15.2235 121.286 15.2235H116.303V27.7579H119.074ZM121.325 17.7378C122.594 17.7378 123.576 18.2593 123.576 19.4885C123.576 20.6619 122.614 21.3324 121.286 21.3324H119.093L119.112 17.7378H121.325Z" fill="#262523"/>
</svg>
