<svg width="20" height="18" viewBox="0 0 20 18" fill="none" xmlns="http://www.w3.org/2000/svg">
<path d="M10 10.6808C10.9263 10.6808 11.6773 9.9283 11.6773 9C11.6773 8.0717 10.9263 7.31917 10 7.31917C9.07367 7.31917 8.32273 8.0717 8.32273 9C8.32273 9.9283 9.07367 10.6808 10 10.6808Z" stroke="#F1EDE8"/>
<path d="M10 12.4437C14.9706 12.4437 19 10.9019 19 9C19 7.09812 14.9706 5.55634 10 5.55634C5.02944 5.55634 1 7.09812 1 9C1 10.9019 5.02944 12.4437 10 12.4437Z" stroke="#F1EDE8"/>
<path d="M7.02402 10.7218C9.5093 15.0356 12.8564 17.7617 14.5 16.8108C16.1436 15.8598 15.4613 11.5919 12.976 7.27817C10.4907 2.9644 7.14359 0.238293 5.5 1.18923C3.85641 2.14017 4.53874 6.40806 7.02402 10.7218Z" stroke="#F1EDE8"/>
<path d="M7.02402 7.27817C4.53874 11.5919 3.85641 15.8598 5.5 16.8108C7.14359 17.7617 10.4907 15.0356 12.976 10.7218C15.4613 6.40806 16.1436 2.14017 14.5 1.18923C12.8564 0.238292 9.5093 2.9644 7.02402 7.27817Z" stroke="#F1EDE8"/>
</svg>
